<?xml version="1.0" encoding="UTF-8" standalone="no"?>
<svg
   width="92"
   height="92"
   viewBox="0 0 92 92"
   fill="none"
   version="1.1"
   id="svg3"
   sodipodi:docname="cart.svg"
   xmlns:inkscape="http://www.inkscape.org/namespaces/inkscape"
   xmlns:sodipodi="http://sodipodi.sourceforge.net/DTD/sodipodi-0.dtd"
   xmlns="http://www.w3.org/2000/svg"
   xmlns:svg="http://www.w3.org/2000/svg">
  <sodipodi:namedview
     id="namedview3"
     pagecolor="#505050"
     bordercolor="#ffffff"
     borderopacity="1"
     inkscape:showpageshadow="0"
     inkscape:pageopacity="0"
     inkscape:pagecheckerboard="1"
     inkscape:deskcolor="#505050" />
  <g
     id="g3"
     transform="matrix(1.5330284,0,0,1.5330284,-24.519306,-24.519306)">
    <circle
       cx="46"
       cy="46"
       r="30"
       fill="#2f2926"
       id="circle1" />
    <path
       fill-rule="evenodd"
       clip-rule="evenodd"
       d="m 48.0486,38.0488 v 2.7235 h -4.0975 v -2.7235 c 0,-1.1315 0.9173,-2.0488 2.0488,-2.0488 1.1315,0 2.0487,0.9173 2.0487,2.0488 z m -6.0975,0 c 0,-2.2361 1.8127,-4.0488 4.0488,-4.0488 2.236,0 4.0487,1.8127 4.0487,4.0488 v 2.7235 0.6504 h 1.4942 c 1.0675,0 1.9469,0.8385 1.9977,1.9049 l 0.4573,9.6038 c 0.0543,1.1407 -0.8558,2.0952 -1.9977,2.0952 H 40 c -1.1419,0 -2.052,-0.9545 -1.9977,-2.0952 l 0.4573,-9.6038 c 0.0508,-1.0664 0.9302,-1.9049 1.9978,-1.9049 h 1.4937 v -0.6504 z m -1.4937,5.3739 h 11.0854 l 0.4573,9.6039 H 40 Z"
       fill="#ffffff"
       id="path1" />
  </g>
  <defs
     id="defs3" />
</svg>
