<?xml version="1.0" encoding="UTF-8" standalone="no"?>
<svg
   width="64"
   height="64"
   viewBox="0 0 64 64"
   fill="none"
   version="1.1"
   id="svg3"
   sodipodi:docname="plus.svg"
   inkscape:version="1.3 (0e150ed6c4, 2023-07-21)"
   xmlns:inkscape="http://www.inkscape.org/namespaces/inkscape"
   xmlns:sodipodi="http://sodipodi.sourceforge.net/DTD/sodipodi-0.dtd"
   xmlns="http://www.w3.org/2000/svg"
   xmlns:svg="http://www.w3.org/2000/svg">
  <sodipodi:namedview
     id="namedview3"
     pagecolor="#505050"
     bordercolor="#ffffff"
     borderopacity="1"
     inkscape:showpageshadow="0"
     inkscape:pageopacity="0"
     inkscape:pagecheckerboard="1"
     inkscape:deskcolor="#505050"
     inkscape:zoom="27.328125"
     inkscape:cx="34.506575"
     inkscape:cy="24.315609"
     inkscape:window-width="3840"
     inkscape:window-height="2054"
     inkscape:window-x="-11"
     inkscape:window-y="-11"
     inkscape:window-maximized="1"
     inkscape:current-layer="svg3" />
  <g
     id="g3"
     transform="matrix(1.9994099,0,0,1.9994099,-31.929368,-31.929368)">
    <circle
       cx="32"
       cy="32"
       r="16"
       fill="#2f2926"
       id="circle1" />
    <path
       d="m 32.8478,31.0616 v -5.6514 c 0,-0.5137 -0.4226,-0.9363 -0.9363,-0.9363 -0.5138,0 -0.9364,0.4226 -0.9364,0.9363 v 5.6514 h -5.6513 c -0.5138,0 -0.9364,0.4226 -0.9364,0.9363 0,0.2569 0.1036,0.4931 0.2734,0.6629 0.1699,0.1699 0.4061,0.2735 0.663,0.2735 h 5.6513 v 5.6513 c 0,0.2569 0.1036,0.4931 0.2734,0.6629 0.1699,0.1699 0.4061,0.2735 0.6629,0.2735 0.5138,0 0.9364,-0.4226 0.9364,-0.9364 v -5.6513 h 5.6513 c 0.5138,0 0.9364,-0.4226 0.9364,-0.9364 0,-0.5137 -0.4226,-0.9363 -0.9364,-0.9363 z"
       fill="#ffffff"
       id="path1" />
  </g>
  <defs
     id="defs3">
    <filter
       id="filter0_d_6_151"
       x="0"
       y="0"
       width="64"
       height="64"
       filterUnits="userSpaceOnUse"
       color-interpolation-filters="sRGB">
      <feFlood
         flood-opacity="0"
         result="BackgroundImageFix"
         id="feFlood1" />
      <feColorMatrix
         in="SourceAlpha"
         type="matrix"
         values="0 0 0 0 0 0 0 0 0 0 0 0 0 0 0 0 0 0 127 0"
         result="hardAlpha"
         id="feColorMatrix1" />
      <feOffset
         id="feOffset1" />
      <feGaussianBlur
         stdDeviation="8"
         id="feGaussianBlur1" />
      <feColorMatrix
         type="matrix"
         values="0 0 0 0 0 0 0 0 0 0 0 0 0 0 0 0 0 0 0.12 0"
         id="feColorMatrix2" />
      <feBlend
         mode="normal"
         in2="BackgroundImageFix"
         result="effect1_dropShadow_6_151"
         id="feBlend2" />
      <feBlend
         mode="normal"
         in="SourceGraphic"
         in2="effect1_dropShadow_6_151"
         result="shape"
         id="feBlend3" />
    </filter>
  </defs>
</svg>
